<svg width="35" height="29" viewBox="0 0 35 29" fill="none" xmlns="http://www.w3.org/2000/svg">
<path fill-rule="evenodd" clip-rule="evenodd" d="M17.8889 1C10.5611 1 4.31141 5.61595 1.88892 12.0988C3.12381 15.4035 5.35322 18.223 8.21299 20.1933V26.6126L14.2983 22.8194C15.456 23.0671 16.6572 23.1976 17.8889 23.1976C25.2167 23.1976 31.4664 18.5816 33.8889 12.0988C31.4664 5.61595 25.2167 1 17.8889 1Z" fill="white"/>
<path d="M1.88892 12.0988L0.952181 11.7487L0.821379 12.0988L0.952181 12.4488L1.88892 12.0988ZM8.21299 20.1933H9.21299V19.6679L8.78034 19.3699L8.21299 20.1933ZM8.21299 26.6126H7.21299V28.4143L8.74197 27.4612L8.21299 26.6126ZM14.2983 22.8194L14.5076 21.8415L14.1123 21.7569L13.7693 21.9707L14.2983 22.8194ZM33.8889 12.0988L34.8256 12.4488L34.9564 12.0988L34.8256 11.7487L33.8889 12.0988ZM2.82565 12.4488C5.10686 6.3441 10.9918 2 17.8889 2V0C10.1304 0 3.51597 4.8878 0.952181 11.7487L2.82565 12.4488ZM8.78034 19.3699C6.08679 17.5141 3.98777 14.8587 2.82565 11.7487L0.952181 12.4488C2.25985 15.9483 4.61965 18.932 7.64564 21.0168L8.78034 19.3699ZM9.21299 26.6126V20.1933H7.21299V26.6126H9.21299ZM13.7693 21.9707L7.68401 25.7639L8.74197 27.4612L14.8273 23.668L13.7693 21.9707ZM17.8889 22.1976C16.728 22.1976 15.5969 22.0747 14.5076 21.8415L14.089 23.7972C15.3151 24.0596 16.5864 24.1976 17.8889 24.1976V22.1976ZM32.9521 11.7487C30.6709 17.8535 24.786 22.1976 17.8889 22.1976V24.1976C25.6474 24.1976 32.2618 19.3098 34.8256 12.4488L32.9521 11.7487ZM17.8889 2C24.786 2 30.6709 6.3441 32.9521 12.4488L34.8256 11.7487C32.2618 4.8878 25.6474 0 17.8889 0V2Z" fill="black"/>
</svg>
